<svg xmlns="http://www.w3.org/2000/svg" viewBox="0 0 409.631 409.599" style="enable-background:new 0 0 409.631 409.599" xml:space="preserve"><path d="M409.631 396c-1.964 4.712-4.238 9.132-9.148 11.563-6.186 3.063-12.106 2.683-17.732-1.222-1.735-1.204-3.253-2.752-4.758-4.255a200131.38 200131.38 0 0 1-110.007-109.988c-1.216-1.216-2.247-2.617-3.572-4.175-2.623 1.913-4.743 3.452-6.855 4.999-23.176 16.978-49.05 27.183-77.593 30.223-45.186 4.812-85.699-7.274-120.658-36.032C26.613 260.22 7.172 225.334 1.538 183.17c-5.399-40.405 3.433-77.842 26.285-111.338 27.299-40.015 65.419-63.594 113.615-70.4 3.267-.461 6.529-.954 9.793-1.432h21.6c4.599.602 9.221 1.062 13.792 1.829 37.827 6.352 70.118 23.191 95.657 51.935 34.494 38.823 47.657 84.222 39.586 135.501-4 25.414-14.151 48.428-29.521 69.1-1.332 1.792-2.651 3.595-4.551 6.174 1.417 1.086 2.806 1.925 3.921 3.038 36.027 35.983 72.079 71.942 107.96 108.07 3.84 3.866 6.662 8.743 9.957 13.151l-.001 7.202zM162.102 290.158c70.717-.561 127.853-56.616 127.953-127.946.1-71.286-57.472-127.801-127.813-127.983-70.363-.182-127.898 57.306-127.99 127.842-.092 70.347 57.358 127.903 127.85 128.087z"/></svg>